<svg xmlns="http://www.w3.org/2000/svg" viewBox="0 0 456.14 761.01"><defs><style>.cls-1{fill:#5975fe;}.cls-2{fill:#8dbf44;}.cls-3{fill:#8ebf44;}.cls-4{fill:#8dbf43;}.cls-5{fill:#8dbe46;}.cls-6{fill:#f8f8f8;}.cls-7{fill:#90c148;}.cls-8{fill:#93c34d;}.cls-9{fill:#eff3e9;}.cls-10{fill:#8cbd49;}.cls-11{fill:#c3dc9e;}.cls-12{fill:#f4f4f8;}.cls-13{fill:#e3edd4;}.cls-14{fill:#f1f4ec;}.cls-15{fill:#8dbf45;}.cls-16{fill:#8ebf45;}.cls-17{fill:#f3f5f2;}.cls-18{fill:#8bbc4b;}.cls-19{fill:#e8efdf;}.cls-20{fill:#f4f5f8;}.cls-21{fill:#739aa1;}</style></defs><title>playAt_logo</title><g id="Capa_2" data-name="Capa 2"><g id="Capa_1-2" data-name="Capa 1"><path class="cls-1" d="M445.2,182.19c-8.34-43.49-25-83.13-56.92-113.28C325,9.16,251-13.86,166.64,8.25,90.23,28.35,40.93,79.87,14.51,155.33c-25.7,73.08-17.19,142.33,25,206.82,6.91,10.6,5.49,10.6,13.65,1.1,19.68-23,39.71-45.86,59.22-69.06,4.79-5.67,7.45-5.12,12.59-.73,23.58,20.28,47.16,40.56,71.45,59.92,25,19.92,53.73,26.5,84.4,19.55,32.09-7.12,53.9-29.05,70.57-56.82,23.58-39.28,21.45-77.47-5.5-114.56-11.17-15.34-25.35-27.22-39.18-39.46-23.41-20.83-47-41.11-69.51-62.49-13.47-12.79-23.4-13.7-35.64.73-30.49,36.36-60.81,72.9-91.31,109.26-17.2,20.65-34.57,41.29-52.48,62.67-3.9-10.05-5-19.73-6-28.87C43.24,156.24,100.51,92.48,151,68.18c71.81-34.53,158.69-14.07,204.26,46,52.31,68.88,56.21,155.3,6.92,226.56-44,63.4-89.55,125.52-132.1,189.83-4.25,6.39-8.16,6.58-12.23.36-20.22-31.06-42.91-60.29-64.19-90.62-9.57-13.7-19.5-27.22-27.84-42-8.51-15-22.34-16.81-37.41-6.76-10.64,6.94-12,19.91-3.9,33.8a58.52,58.52,0,0,0,3.9,6c10.29,15.35,20.39,30.51,30.68,45.86L193.6,588.53c16.31,24.3,40.07,26.67,54.61,5.84,34.22-49.14,68.79-98.11,102.66-147.62,20.21-29.6,44.15-56.46,61.17-88.43C441.47,303.14,457.25,245.59,445.2,182.19ZM159.58,240.88a44.88,44.88,0,0,1,3.38-5.11,68.06,68.06,0,0,1,5.44-6.05,41.68,41.68,0,0,1,8.22-9.59,8.83,8.83,0,0,1,3.38-4.21c2-1.33,3.86-5.33,5.44-7.24,2.45-2.93,4.69-6,7.08-9,4.65-5.83,9-11.92,14.65-16.88a13.16,13.16,0,0,1,1.11-.86c.15-.24.28-.48.43-.71a29.33,29.33,0,0,1,5.74-6.41l.6-.57a14.37,14.37,0,0,1,.68-1.36c.22-.36.47-.7.72-1l.91-1.21c.1-.14.3-.41.38-.54.32-.51.38-.59.33-.46,1.81-3.79,5.23-6.33,9.72-5.63a6.57,6.57,0,0,1,3.8,2.13,15.36,15.36,0,0,1,2.08,1.69,5.61,5.61,0,0,1,.54.29c1,.61,1.89,1.32,2.81,2a7.24,7.24,0,0,1,1.22,1.56,19.12,19.12,0,0,1,1.85,1.33,5.15,5.15,0,0,1,1.07,1.26h0a6.1,6.1,0,0,1,.91.67l.12.1a6.16,6.16,0,0,1,.7.75l.21.17a20.35,20.35,0,0,1,3,2.42c2.06,1.71,4.1,3.44,6.08,5.23,1.06,1,2.15,1.91,3.21,2.88l.22.14a55.46,55.46,0,0,1,6.67,5.13c1.42,1.39,2.89,2.83,4.35,4.31a13.65,13.65,0,0,1,2.62,1.79,9.11,9.11,0,0,1,1.08,1.16c1,.69,2,1.4,2.95,2.15a27.71,27.71,0,0,1,6.08,5.26c1.51,1.5,3,3.06,4.38,4.63a41.06,41.06,0,0,1,4.09,4.33l.36.45a16.14,16.14,0,0,1,1.92,2.17,16.74,16.74,0,0,1,4.51,4.85c.27.43.51.88.76,1.32a7.78,7.78,0,0,1,2.35,2.39,6,6,0,0,1,.68,1.64,5.66,5.66,0,0,1,1.64,2.5,42.13,42.13,0,0,1,8.83,18.85,17,17,0,0,1,.77,3,50.46,50.46,0,0,1,.25,8.95c0,1-.13,2.06-.25,3.07-.14,2-.4,4.08-.74,6.11a17.28,17.28,0,0,1-.92,3.7l-.63,1.28a.5.5,0,0,1,0,.12,8.89,8.89,0,0,1-1.52,6.58,8.92,8.92,0,0,1-3,5.8h0a28.22,28.22,0,0,1-3.45,5.69,29.46,29.46,0,0,1-8,7.82,8.06,8.06,0,0,1-3.41,3.74c-2.58,1.39-4.72,3.3-7.4,4.55-.49.22-1,.42-1.43.61a25.71,25.71,0,0,1-3.57,1.74,16,16,0,0,1-3.93,1.74,18.2,18.2,0,0,1-8.45,2.34c-.43,0-.86.06-1.3.06h-.28a14.41,14.41,0,0,1-4.15.6,23.06,23.06,0,0,1-2.63-.16c-.86,0-1.68,0-2.44,0a22.18,22.18,0,0,1-3.17-.27,27.8,27.8,0,0,1-5.52-.85,24,24,0,0,1-6.84-1.94l-.17-.08c-.71-.23-1.42-.47-2.13-.73-.87-.39-1.71-.82-2.53-1.29a28.47,28.47,0,0,1-5.18-2.71,18.76,18.76,0,0,1-1.68-1,30.31,30.31,0,0,1-2.67-1.79L222,306l-.34-.23-.18-.16-.44-.39a26.54,26.54,0,0,1-3.53-2.63l-.78-.47-.44-.35-.15-.07c-4.08-2.13-7-5.91-10.28-9.06-1.41-1.36-2.77-2.75-4.11-4.16-2.16-1.71-4.11-3.62-6.09-5.53h0a129.26,129.26,0,0,1-12-11.6c-.91-.79-1.81-1.58-2.67-2.41-.19-.16-.36-.34-.55-.5a52.06,52.06,0,0,1-4.62-4.17l-.07-.08c-.53-.49-1-1-1.51-1.53a25.13,25.13,0,0,1-4-4.45,35,35,0,0,1-4.54-4.41,1.23,1.23,0,0,1-.61-.62c-.31-.3-.63-.61-1-.9a3.38,3.38,0,0,1-.46-.47l-.24-.15a5.64,5.64,0,0,1-1.73-.91,2.56,2.56,0,0,1-.51-.53,14,14,0,0,1-1.34-.81,5.29,5.29,0,0,1-1.54-1.64,1.18,1.18,0,0,1-.11-.19c-.06-.11-.11-.23-.16-.34a1.76,1.76,0,0,1-.26-.78A5.65,5.65,0,0,1,159.58,240.88Z"/><path class="cls-1" d="M287.57,710.76c-4.43-.19-3.9-3.11-3-6.21,1.25-4.21,2.31-8.41,3.37-12.61a145.5,145.5,0,0,1,6.92-28.87c.71-2.19,1.24-4.57,1.77-6.76,5-16.44,9.93-32.7,14.72-49.15,2.83-9.32,4.78-10.59,14.71-10a11.35,11.35,0,0,1,2.49,1.47h3.54c5.85-3.66,12.06-2.2,18.27-1.28a9.85,9.85,0,0,1,5,5.48c4.08,11.33,6.74,23.38,10.64,34.71l2.13,6.58c2.66,10.78,6.38,21.19,9.75,31.61.71,1.82.88,3.83,1.42,5.66,2.3,6.94,4.61,13.7,6.73,20.65,1.78,6.21-.17,10.23-6.73,10.59a175.38,175.38,0,0,1-22,0c-6.91-.36-9.75-5.11-10.82-11.14-1.41-8.59-6.2-11.15-14.36-10.78-12.59.55-12.59.18-16.13,10.6C311.68,713.5,302.11,716.6,287.57,710.76Z"/><path class="cls-2" d="M287.57,710.76c1.24-.19,2.3-.19,3.54-.37,6.21-.18,13.3,1.46,18.27-1.09,4.78-2.56,4.08-10.78,6.2-16.45.71-2,.89-4.38,3.73-4.38,8,0,15.95-.55,23.76.18,4.61.36,4.07,5.66,4.43,8.77,1.59,10.05,5.85,15,16.49,12.79,6.74-1.28,16.31,3.1,19.86-2,2.48-3.47-2.66-12.79-4.61-19.37-.71-2.56-1.42-5.3-2.31-7.85,6-5.85,13.12-10.6,17.91-17.91,2.13-3.11,6-3.29,8.86.37,1.6,12-1.06,23.93.54,36.17.88,6.21,2.83,8.77,8.69,8a36.38,36.38,0,0,1,4.43,0c14.18,0,14-.55,14-15.53,0-9.68-1.25-19.91,2.83-29.41,17.91,0,17.91,0,17.91,18.45v71.25c-11,2-22.16.19-33.33.92-5,.36-4.61-3.11-4.79-6.58-.53-9,1.24-18.09-1.06-27l-.18-.18c-2.66-2-5.68-1.1-8.51-1.1-22-.18-44,0-66,0-2.84,0-5.85-.91-8.51.91h0c-1.95,9-.71,18.09-.71,27.23,0,5.11-1.6,6.94-6.56,6.76-11.7-.73-23.58.91-35.29-.92C287.57,738.53,287.57,724.64,287.57,710.76Z"/><path class="cls-1" d="M81.54,653c-.18-10.41-4.61-16.44-14.19-19.37-10.81-3.47-21.45-2-31.91,2.56-1.78.73-4.61,3.29-5.32,1.46-3.37-7.85-9.75-2.92-14.54-4-6.21-1.46-8.87,1.1-8.51,8.23.53,13.7.18,27.4.18,41.11s.35,27.4-.36,40.74c-.35,6.94,1.6,8.95,8.33,8.77,16.67-.18,16.85.18,17-16.81,0-5.66,1.77-7.31,7.09-7.13a221.33,221.33,0,0,0,22.16,0c13.12-.73,19.86-8.4,20-21.74C81.71,675.49,81.71,664.35,81.54,653ZM57.23,683.77a4.07,4.07,0,0,1-.91,2.37A5.52,5.52,0,0,1,54,687.77a3.72,3.72,0,0,1-1.1.35l-.82.16a9,9,0,0,1-1.24.52,8.17,8.17,0,0,1-3.13.35l-1.78.34h-.64a6.91,6.91,0,0,1-.91,0,8.83,8.83,0,0,1-1.45.17,9.72,9.72,0,0,1-2.39-.21,6.92,6.92,0,0,1-1.69.33,13.49,13.49,0,0,1-2.76-.19,5.82,5.82,0,0,1-2-.92,2,2,0,0,1-1.18-1.09,1.62,1.62,0,0,1-.44-1.24,3.86,3.86,0,0,1,.1-2.18,4.24,4.24,0,0,1-.12-1c0-1.48-.07-3,0-4.45,0-.2,0-.39.05-.58a7.89,7.89,0,0,1-.78-3.43c.07-2.73.43-5.43.49-8.15a16,16,0,0,1,0-2.85v-.08a5.89,5.89,0,0,1,0-.84,9.07,9.07,0,0,1,.48-5.31c1.2-2.83,4.28-5.55,7.56-5.56l.31-.13a15.86,15.86,0,0,1,3.35-.64c1.14-.13,2.27-.34,3.41-.48a6.24,6.24,0,0,1,1.36-.16h.17a8.83,8.83,0,0,1,3.44.68h.07a2.43,2.43,0,0,1,1.81.73,2.46,2.46,0,0,0,.72.55,3.27,3.27,0,0,1,.87,1.82,8.17,8.17,0,0,1,1,3.81.86.86,0,0,1,0,.16,4.92,4.92,0,0,1,.18.78c.69,4,.44,8.18.27,12.3l0,.34a6.09,6.09,0,0,1,.53,2.49,11.57,11.57,0,0,1,0,2.94v2.21A10.63,10.63,0,0,1,57.23,683.77Z"/><path class="cls-1" d="M434.56,662.89c-.18,13.34-.36,26.67-.36,40,0,5.66-1.77,8.59-7.62,7.67a23.34,23.34,0,0,0-3.55,0c-22,0-21.81,0-21.28-23,.18-8-.17-16.26-.17-24.3a15.76,15.76,0,0,1-1.07-6.39c-.35-6.58,0-13.16-.17-19.92-.18-3.47-.71-6.57-5-7.3-5.49-1.1-12.59,1.82-16.13-4.39s-1.78-13.52-1.6-20.46c.18-2.38.53-4.39,2.13-6.21,8.51-3.66,17.2-1.83,25.89-1.47a9,9,0,0,1,2.83,1.65h3.19c.89-.55,1.95-1.1,3-1.65,12.76-.54,25.53-3.1,37.94,1.65,1.24.36,3.19.36,3.37,2.19.18,7.67.18,15.53,0,23.2,0,1.83-1.95,1.83-3.19,2.38-2.66,2.37-5.85,2.74-9,2.56-6.21-.37-8,3.1-8,8.95,0,6.58,1.06,13.15-1.07,19.73A47.91,47.91,0,0,0,434.56,662.89Z"/><path class="cls-1" d="M208.31,675.68c0-8.22.18-16.45.36-24.85-.18-10.78-4.61-16.08-14.9-17.91-15.07-2.55-30.14,0-45,.92-2.13.18-3.9.73-4.79,3.29-3.19,9.68.53,15.34,10.46,15,2.13,0,4.08-.18,6.21-.18,6.38-.19,12.94-.74,19.32-.55,3.55.18,6.21,2.37,6.21,6.39-.18,5.12-4.26,3.11-6.74,3.11-7.62.18-15.42-.18-23,0-12.77.36-19.68,9.13-19.68,24.12,0,15.89,6.56,24.48,19.5,25.39a49,49,0,0,0,25-4.75,19.2,19.2,0,0,1,4.61-1.64c3.55,8,10.47,3.1,15.61,4.2,5.14,1.28,7.27-1.28,7.09-6.94C208,692.67,208.31,684.26,208.31,675.68Zm-22.71,7a5.85,5.85,0,0,1-2.29,3.91,7.59,7.59,0,0,1-4.11,2.6l-1.37.42a7.87,7.87,0,0,1-.89.24l-.16,0a5.88,5.88,0,0,1-.8.12c-.53.08-1.07.14-1.61.18a3.29,3.29,0,0,1-.43.09c-3.95.46-9,1.79-11.24-2.75a5.11,5.11,0,0,1-.4-1.26s0-.07,0-.1a.19.19,0,0,1,0-.07,2.87,2.87,0,0,1-.14-.66s0-.1,0-.15,0-.07,0-.1h0a4.71,4.71,0,0,1,2.2-5.36c-.61.46-.73.54-.34.26a12.07,12.07,0,0,1,1.19-.83,7.27,7.27,0,0,1,1.68-.58,12.54,12.54,0,0,1,1.36-.26,9.34,9.34,0,0,1,4.08.13c1.14,0,2.28,0,3.42,0a5,5,0,0,1,1.32-.19c.14,0,.26,0,.39,0,2.07-.44,4.59-.74,6.07.36C184.65,679.54,185.86,681,185.6,682.65Z"/><path class="cls-1" d="M287.21,654.3c-7.09,19.37-14.54,38.37-21.1,57.92-7.09,21.38-25.71,23.57-40.78,21.92-6.2-.73-3.19-6-3.72-9.5-1.06-6.39-.71-10.41,8.16-9.32,10.46,1.28,13.83-4.75,9.75-15-8.16-20.28-16.31-40.38-24.82-60.47-2.31-5.48-1.07-6.58,4.43-6.58,18.08-.37,17.91-.55,24.47,17.36,3.19,8.77,6.38,17.35,10.46,28.5,4.25-13.34,8.33-23.94,11-34.9,2.13-8.4,5.85-12.42,14.54-11,2.48.37,5.32-.18,8-.37,5.85-2.19,8.86-.36,6.74,6.22C292.71,644.43,292.36,650.65,287.21,654.3Z"/><path class="cls-1" d="M94.13,652.84c0-12.24.17-24.3-.18-36.54-.18-5.12,1.59-6.58,6.56-6.76,18.62-.55,18.62-.73,18.62,17.9v53c0,6,0,11.69,8.51,9.5.71-.18,2.12.18,2.12.55.36,5.11.89,10.23.36,15.34-.36,4.39-4.61,4.21-7.62,4.39-17,1.46-29.79-2.56-28.37-26.31C94.48,673.48,94.13,663.25,94.13,652.84Z"/><path class="cls-2" d="M287.21,654.3c1.6-4.75,2.66-9.87,4.79-14.43,2.66-5.67,0-6.76-4.43-6.76,0-18.64.71-37.09-.18-55.73-.53-9.86,2.84-11.87,11.35-11.14,9,.73,18.26,0,27.48,0,2.66,10.78,1.42,21.56.71,32.52-8.86-1.65-12.06,3.29-14.18,11.33-4.26,15.89-9.58,31.6-14.37,47.5-3.54,2.74-7.09,2.74-10.46-.37A18.25,18.25,0,0,1,287.21,654.3Z"/><path class="cls-3" d="M395.9,566.42c3.37,0,6.74-.18,10.11-.18,2.3,10.41,1.6,20.82.53,31.24-24.11,1.46-48.4,2.74-72.52.36-.53,0-.88-.73-1.42-1.09,0-6-.35-12.06-.17-17.91.17-12.6-3-12.79,12.05-12.24a4.24,4.24,0,0,1,1.25,1.28c2.3,3.29-.18,8.77,3.19,11,4.08,2.56,9.22.92,13.83,1.1,7.09.18,14.18-.37,21.27.18,6.39.37,10.29-1.09,9.93-8.77C393.42,569.34,394.31,567.7,395.9,566.42Z"/><path class="cls-4" d="M333.67,752.05V725.19c3.19-2.37,6.91-1.1,10.28-1.1,18.27-.18,36.53,0,54.79,0,10.28,0,10.28,0,10.28,11v7.31c0,10.78,0,10.78-10.28,11-.53-.18-1.42-.37-1.6-.73-1.41-11.51-9.75-10.42-17.73-10.23a157.14,157.14,0,0,1-16,0c-8.51-.92-15.61.18-17.38,10.59C342,753.15,337.75,754.42,333.67,752.05Z"/><path class="cls-3" d="M452.46,598.58H413.1c-.17-10.78-1.77-21.75.89-32.34,10.81,0,21.63.18,32.45,0,4.43-.19,6.2,1.28,6.2,6.21C452.29,581,452.46,589.81,452.46,598.58Z"/><path class="cls-5" d="M434.56,657.41c-1.95-9-.54-17.91-.89-26.86-.18-3.66,1.77-4.75,5-4.57,4.61.18,9.22.18,14,.37,0,7.67-.53,15.16.18,22.83.53,7.13-1.95,9.14-8.33,8.41C440.94,657,437.75,657.41,434.56,657.41Z"/><path class="cls-6" d="M395.9,566.42c-.53,16.08-.53,16.08-15.78,16.08-8.86,0-17.55-.55-26.42.18-7.8.73-10.81-1.83-9.57-9.87a26,26,0,0,0-.18-6.39c.36-2.19-.35-5.48,2.84-5.48s2.48,3.29,2.84,5.48c2.48,6.39,7.09,8.77,13.65,8a52.36,52.36,0,0,1,13.12,0c6.56.73,11.17-1.65,13.65-8,.36-2.19-.35-5.48,2.84-5.48C396.26,561.12,395.55,564.41,395.9,566.42Z"/><path class="cls-6" d="M346.08,752.41c0-12.79,0-12.79,12.59-12.79h26.42c12.59,0,12.59,0,12.59,12.79,1.06.55,1.06,1.28,0,2-.54,2.38,1.24,6.58-2.66,6.58-4.26-.18-1.95-4.75-3-7.31-2.66-4.56-6.56-6.21-11.7-5.84a128.78,128.78,0,0,1-16.67,0c-5.14-.37-9,1.28-11.7,5.84-.89,2.56,1.24,7.31-3,7.31-3.9.18-2.13-4-2.66-6.58C345,753.69,345,753.15,346.08,752.41Z"/><path class="cls-7" d="M390.23,566.42c1.95,9-1.77,11.69-10.11,10.78a93.53,93.53,0,0,0-20.21,0c-8.33.91-12.06-1.65-10.11-10.78Z"/><path class="cls-8" d="M351.75,753.51c-1.59-6.58.54-9.13,7.45-8.59a195.09,195.09,0,0,0,25.36,0c6.91-.54,9,2,7.44,8.59Z"/><path class="cls-9" d="M397.5,754.42v-2c11.17.92,11.17.92,11.17-10.59,0-17.36,0-17.54-16.67-17.36-19.5.37-38.83-1.1-58.33.73,1.59-3.11,4.61-2.19,7.09-2.19,20.21,0,40.6.18,60.82-.18,6.74-.19,9,2.19,8.33,8.95-.35,3.29,0,6.58,0,10.05C410.09,754.24,410.09,754.24,397.5,754.42Z"/><path class="cls-10" d="M296.43,663.07a163.8,163.8,0,0,1-8.68,28.87c0-9.5-.18-19.19-.18-28.69C290.58,660.51,293.6,660.15,296.43,663.07Z"/><path class="cls-9" d="M330.12,719.53c3.19-2.38,6.92-1.28,10.29-1.28,21.45-.18,42.9-.18,64.54,0,2.83,0,5.85-1.28,8.33,1.46C385.44,719.71,357.78,719.53,330.12,719.53Z"/><path class="cls-11" d="M332.43,596.75c24.64.18,49.29.18,73.93.36.54.37.71.73.54.92-.18.36-.36.55-.54.55-8.86.18-17.73.18-26.41.36-9.4,4.2-19,4-28.37,0-6.56-.18-13.12-.18-19.51-.36A8.14,8.14,0,0,1,332.43,596.75Z"/><path class="cls-9" d="M287.57,752.41c11.52.19,23.05.19,34.4.55,5,.18,6.38-1.64,6.73-6.76.36-9-1.95-17.9,1.42-26.67,0,9.13-.17,18.27.18,27.4.18,5.3-1.42,8-7.09,7.49C311.33,753.15,299.27,756.8,287.57,752.41Z"/><path class="cls-9" d="M413.28,719.71c3,8.4,1.06,17.17,1.24,25.94.18,5.49,1.6,7.68,7.09,7.31,10.29-.55,20.57-.36,30.85-.55-11.7,4.21-23.75,1.1-35.63,1.65-3.73.18-3.55-3.29-3.55-6Z"/><path class="cls-12" d="M296.43,663.07h-8.86v-5.85c3.54.19,7.09.19,10.46.37C298.21,659.6,298,661.43,296.43,663.07Z"/><path class="cls-13" d="M413.81,566.24c-1.77,10.78-.18,21.56-.89,32.34l-.88.18-.71-.18c0-8,0-16.27.18-24.3C411.68,571.35,410.27,568.06,413.81,566.24Z"/><path class="cls-13" d="M406.36,598.58v-1.47c.36-10.23,1.07-20.64-.35-30.87,4.79,4.38,1.77,10,2.31,15.16.53,5.66.17,11.51,0,17.18Z"/><path class="cls-14" d="M326.75,598.58c-.17-10.78-.53-21.56-.71-32.53,4.61,5.12,1.6,11.33,2.13,17,.53,5.11.18,10.23.18,15.34l-.89.19Z"/><path class="cls-9" d="M346.08,752.41v2c-4.08-.91-8.87,2-12.23-2.37A25,25,0,0,0,346.08,752.41Z"/><path class="cls-15" d="M379.41,603.87a24.93,24.93,0,0,1,.18,3.66c.18,5.66-1.59,12.79,1.07,16.81,3,4.56,10.46,1.28,15.78,1.64,3.36.18,5.67.91,5.49,5.12-.35,8.77.89,17.54-.71,26.31-3,2.74-6,1.46-7.44-1.28-6.21-12.79-17.73-15.71-30-17.36-3.55-11.51-7.09-23.2-10.64-34.71A34.38,34.38,0,0,1,379.41,603.87Z"/><path class="cls-16" d="M375.69,675.86c-3.19-10.6-6.56-21.19-9.75-31.79,7.8-4.57,14.72-1.65,20.74,3.84,5.15,4.75,7.63,11,4.61,17.9C388.28,672.21,383.67,677,375.69,675.86Z"/><path class="cls-17" d="M375.69,675.86a31.44,31.44,0,0,0,5.67-2.56c5.5-3.1,9.4-7.49,8.87-14.43-.53-6.58-5-10.78-10.64-13.34-4.43-2-9-2.19-13.83-1.64-.53-1.83-1.06-3.48-1.59-5.3,14.36-2.38,23.4,1.82,30.31,15,1.78,3.47,3.91,3.84,6.92,3.65a6.35,6.35,0,0,1,0,5.67c-3-.18-5.5-.18-6.92,3.47-3,8.22-9.57,12.42-17.37,14.8C376.58,679.51,376.22,677.69,375.69,675.86Z"/><path class="cls-18" d="M324.8,657.22c1.78-7.3,3.55-14.61,5.68-23.75A119.48,119.48,0,0,1,337,657.41C333,660.7,328.88,660.7,324.8,657.22Z"/><path class="cls-19" d="M379.41,603.87c-8.68,0-17.19,0-25.88.19-.71-1.65-1.42-3.29-1.95-4.94H380C379.77,600.59,379.59,602.23,379.41,603.87Z"/><path class="cls-20" d="M324.8,657.22H337c.53,1.83,1.06,3.66,1.59,5.3a25.2,25.2,0,0,1-15.6,0A45.1,45.1,0,0,0,324.8,657.22Z"/><path class="cls-21" d="M323.21,662.71h15.6C333.49,666,328.35,665.81,323.21,662.71Z"/></g></g></svg>